{
    "asset": {
        "version": "2.0",
        "generator": "goxel"
    },
    "buffers": [
        {
            "byteLength": 30016,
            "uri": "data:application/octet-stream;base64,"
        },
        {
            "byteLength": 3216,
            "uri": "data:application/octet-stream;base64,"
        },
        {
            "byteLength": 25312,
            "uri": "data:application/octet-stream;base64,"
        },
        {
            "byteLength": 2712,
            "uri": "data:application/octet-stream;base64,"
        },
        {
            "byteLength": 31248,
            "uri": "data:application/octet-stream;base64,"
        },
        {
            "byteLength": 3348,
            "uri": "data:application/octet-stream;base64,"
        },
        {
            "byteLength": 23408,
            "uri": "data:application/octet-stream;base64,"
        },
        {
            "byteLength": 2508,
            "uri": "data:application/octet-stream;base64,"
        }
    ],
    "bufferViews": [
        {
            "buffer": 1,
            "byteLength": 3216,
            "target": 34963
        },
        {
            "buffer": 0,
            "byteLength": 30016,
            "byteStride": 28,
            "target": 34962
        },
        {
            "buffer": 3,
            "byteLength": 2712,
            "target": 34963
        },
        {
            "buffer": 2,
            "byteLength": 25312,
            "byteStride": 28,
            "target": 34962
        },
        {
            "buffer": 5,
            "byteLength": 3348,
            "target": 34963
        },
        {
            "buffer": 4,
            "byteLength": 31248,
            "byteStride": 28,
            "target": 34962
        },
        {
            "buffer": 7,
            "byteLength": 2508,
            "target": 34963
        },
        {
            "buffer": 6,
            "byteLength": 23408,
            "byteStride": 28,
            "target": 34962
        }
    ],
    "meshes": [
        {
            "primitives": [
                {
                    "attributes": {
                        "POSITION": 1,
                        "COLOR_0": 2,
                        "NORMAL": 3
                    },
                    "indices": 0
                }
            ]
        },
        {
            "primitives": [
                {
                    "attributes": {
                        "POSITION": 5,
                        "COLOR_0": 6,
                        "NORMAL": 7
                    },
                    "indices": 4
                }
            ]
        },
        {
            "primitives": [
                {
                    "attributes": {
                        "POSITION": 9,
                        "COLOR_0": 10,
                        "NORMAL": 11
                    },
                    "indices": 8
                }
            ]
        },
        {
            "primitives": [
                {
                    "attributes": {
                        "POSITION": 13,
                        "COLOR_0": 14,
                        "NORMAL": 15
                    },
                    "indices": 12
                }
            ]
        }
    ],
    "accessors": [
        {
            "bufferView": 0,
            "componentType": 5123,
            "count": 1608,
            "type": "SCALAR"
        },
        {
            "bufferView": 1,
            "componentType": 5126,
            "byteOffset": 0,
            "type": "VEC3",
            "count": 1072,
            "min": [
                7.000000000000,
                8.000000000000,
                0.000000000000
            ],
            "max": [
                16.000000000000,
                16.000000000000,
                12.000000000000
            ]
        },
        {
            "bufferView": 1,
            "componentType": 5121,
            "byteOffset": 24,
            "type": "VEC4",
            "count": 1072,
            "normalized": true
        },
        {
            "bufferView": 1,
            "componentType": 5126,
            "byteOffset": 12,
            "type": "VEC3",
            "count": 1072
        },
        {
            "bufferView": 2,
            "componentType": 5123,
            "count": 1356,
            "type": "SCALAR"
        },
        {
            "bufferView": 3,
            "componentType": 5126,
            "byteOffset": 0,
            "type": "VEC3",
            "count": 904,
            "min": [
                0.000000000000,
                8.000000000000,
                0.000000000000
            ],
            "max": [
                8.000000000000,
                16.000000000000,
                11.000000000000
            ]
        },
        {
            "bufferView": 3,
            "componentType": 5121,
            "byteOffset": 24,
            "type": "VEC4",
            "count": 904,
            "normalized": true
        },
        {
            "bufferView": 3,
            "componentType": 5126,
            "byteOffset": 12,
            "type": "VEC3",
            "count": 904
        },
        {
            "bufferView": 4,
            "componentType": 5123,
            "count": 1674,
            "type": "SCALAR"
        },
        {
            "bufferView": 5,
            "componentType": 5126,
            "byteOffset": 0,
            "type": "VEC3",
            "count": 1116,
            "min": [
                7.000000000000,
                0.000000000000,
                0.000000000000
            ],
            "max": [
                16.000000000000,
                8.000000000000,
                14.000000000000
            ]
        },
        {
            "bufferView": 5,
            "componentType": 5121,
            "byteOffset": 24,
            "type": "VEC4",
            "count": 1116,
            "normalized": true
        },
        {
            "bufferView": 5,
            "componentType": 5126,
            "byteOffset": 12,
            "type": "VEC3",
            "count": 1116
        },
        {
            "bufferView": 6,
            "componentType": 5123,
            "count": 1254,
            "type": "SCALAR"
        },
        {
            "bufferView": 7,
            "componentType": 5126,
            "byteOffset": 0,
            "type": "VEC3",
            "count": 836,
            "min": [
                0.000000000000,
                0.000000000000,
                0.000000000000
            ],
            "max": [
                8.000000000000,
                8.000000000000,
                11.000000000000
            ]
        },
        {
            "bufferView": 7,
            "componentType": 5121,
            "byteOffset": 24,
            "type": "VEC4",
            "count": 836,
            "normalized": true
        },
        {
            "bufferView": 7,
            "componentType": 5126,
            "byteOffset": 12,
            "type": "VEC3",
            "count": 836
        }
    ],
    "nodes": [
        {
            "matrix": [
                1,
                0,
                0,
                0,
                0,
                0,
                -1,
                0,
                0,
                1,
                0,
                0,
                0,
                0,
                0,
                1
            ],
            "children": [
                1,
                2,
                3,
                4
            ]
        },
        {
            "translation": [
                -16,
                -16,
                0
            ],
            "mesh": 0
        },
        {
            "translation": [
                0,
                -16,
                0
            ],
            "mesh": 1
        },
        {
            "translation": [
                -16,
                0,
                0
            ],
            "mesh": 2
        },
        {
            "translation": [
                0,
                0,
                0
            ],
            "mesh": 3
        }
    ],
    "scenes": [
        {
            "nodes": [
                0
            ]
        }
    ]
}